<?xml version="1.0" encoding="iso-8859-1"?>
<!-- Uploaded to: SVG Repo, www.svgrepo.com, Generator: SVG Repo Mixer Tools -->
<svg fill="#000000" height="800px" width="800px" version="1.1" id="Capa_1" xmlns="http://www.w3.org/2000/svg" xmlns:xlink="http://www.w3.org/1999/xlink" 
	 viewBox="0 0 463 463" xml:space="preserve">
<g>
	<path d="M455.5,116H375v-8.5c0-4.142-3.357-7.5-7.5-7.5s-7.5,3.358-7.5,7.5v8.5h-80.5c-4.143,0-7.5,3.358-7.5,7.5
		s3.357,7.5,7.5,7.5H344v17.025c-0.166-0.011-0.331-0.025-0.5-0.025h-224c-0.169,0-0.334,0.014-0.5,0.025V131h64.5
		c4.143,0,7.5-3.358,7.5-7.5s-3.357-7.5-7.5-7.5H103v-8.5c0-4.142-3.357-7.5-7.5-7.5s-7.5,3.358-7.5,7.5v8.5H7.5
		c-4.143,0-7.5,3.358-7.5,7.5s3.357,7.5,7.5,7.5H72v24.5c0,10.336,6.71,19.128,16,22.266v9.734c0,4.142,3.357,7.5,7.5,7.5
		s7.5-3.358,7.5-7.5v-9.734c6.997-2.364,12.527-7.934,14.831-14.958c0.537,0.122,1.094,0.193,1.669,0.193h41.984l2.075,9.337
		c-8.8,1.493-15.95,7.889-18.526,16.273c-18.082,3.292-37.13,19.703-40.495,40.443C94.968,232.027,88,240.965,88,251.5
		c0,10.336,6.71,19.128,16,22.266v19.469c-9.29,3.138-16,11.93-16,22.266v6.23l-7.208,14.416C80.271,337.188,80,338.335,80,339.5v16
		c0,4.142,3.357,7.5,7.5,7.5s7.5-3.358,7.5-7.5v-14.229L100.135,331h22.73L128,341.271V355.5c0,4.142,3.357,7.5,7.5,7.5
		s7.5-3.358,7.5-7.5v-16c0-1.165-0.271-2.313-0.792-3.354L135,321.73v-6.23c0-10.336-6.71-19.128-16-22.266v-19.469
		c9.29-3.138,16-11.93,16-22.266c0-10.061-6.357-18.662-15.264-22.007c2.982-12.358,14.623-22.769,25.789-25.677
		C148.891,212.681,157.469,219,167.5,219h6.575c1.219,3.652,3.262,6.855,5.903,9.415l-13.096,13.096
		c-4.438,4.438-6.883,10.34-6.883,16.617V268h-8.5c-4.143,0-7.5,3.358-7.5,7.5s3.357,7.5,7.5,7.5h32c4.143,0,7.5-3.358,7.5-7.5
		s-3.357-7.5-7.5-7.5H175v-9.873c0-2.271,0.884-4.405,2.49-6.011l17.187-17.187c0.549,0.038,1.099,0.07,1.657,0.07h70.33
		c0.558,0,1.109-0.033,1.657-0.07l17.187,17.187c1.606,1.605,2.49,3.74,2.49,6.011V268h-8.5c-4.143,0-7.5,3.358-7.5,7.5
		s3.357,7.5,7.5,7.5h32c4.143,0,7.5-3.358,7.5-7.5s-3.357-7.5-7.5-7.5H303v-9.873c0-6.277-2.444-12.179-6.883-16.617l-13.096-13.096
		c2.641-2.56,4.684-5.762,5.903-9.415h6.575c10.031,0,18.609-6.319,21.975-15.183c11.166,2.908,22.807,13.319,25.789,25.677
		C334.357,232.838,328,241.439,328,251.5c0,10.336,6.71,19.128,16,22.266v19.469c-9.29,3.138-16,11.93-16,22.266v6.23l-7.208,14.416
		c-0.521,1.042-0.792,2.189-0.792,3.354v16c0,4.142,3.357,7.5,7.5,7.5s7.5-3.358,7.5-7.5v-14.229L340.135,331h22.73L368,341.271
		V355.5c0,4.142,3.357,7.5,7.5,7.5s7.5-3.358,7.5-7.5v-16c0-1.165-0.271-2.313-0.792-3.354L375,321.73v-6.23
		c0-10.336-6.71-19.128-16-22.266v-19.469c9.29-3.138,16-11.93,16-22.266c0-10.535-6.968-19.473-16.537-22.447
		c-3.365-20.74-22.413-37.151-40.495-40.443c-2.576-8.384-9.727-14.781-18.526-16.273l2.075-9.337H343.5
		c0.574,0,1.132-0.071,1.669-0.193c2.304,7.024,7.834,12.595,14.831,14.958v9.734c0,4.142,3.357,7.5,7.5,7.5s7.5-3.358,7.5-7.5
		v-9.734c9.29-3.138,16-11.93,16-22.266V131h64.5c4.143,0,7.5-3.358,7.5-7.5S459.643,116,455.5,116z M95.5,164
		c-4.687,0-8.5-3.813-8.5-8.5V131h17v24.5C104,160.187,100.187,164,95.5,164z M120,316h-17v-0.5c0-4.687,3.813-8.5,8.5-8.5
		s8.5,3.813,8.5,8.5V316z M111.5,260c-4.687,0-8.5-3.813-8.5-8.5s3.813-8.5,8.5-8.5s8.5,3.813,8.5,8.5S116.187,260,111.5,260z
		 M360,316h-17v-0.5c0-4.687,3.813-8.5,8.5-8.5s8.5,3.813,8.5,8.5V316z M351.5,260c-4.687,0-8.5-3.813-8.5-8.5s3.813-8.5,8.5-8.5
		s8.5,3.813,8.5,8.5S356.187,260,351.5,260z M159,195.5c0-4.459,3.454-8.12,7.825-8.466l3.77,16.966H167.5
		C162.813,204,159,200.187,159,195.5z M304,195.5c0,4.687-3.813,8.5-8.5,8.5h-3.095l3.77-16.966
		C300.546,187.38,304,191.041,304,195.5z M274.963,213.344c-0.871,3.919-4.283,6.656-8.298,6.656h-70.33
		c-4.015,0-7.427-2.737-8.298-6.656L176.849,163h109.301L274.963,213.344z M376,155.5c0,4.687-3.813,8.5-8.5,8.5s-8.5-3.813-8.5-8.5
		V131h17V155.5z"/>
	<path d="M207.5,203c4.143,0,7.5-3.358,7.5-7.5v-8c0-4.142-3.357-7.5-7.5-7.5s-7.5,3.358-7.5,7.5v8
		C200,199.642,203.357,203,207.5,203z"/>
	<path d="M255.5,203c4.143,0,7.5-3.358,7.5-7.5v-8c0-4.142-3.357-7.5-7.5-7.5s-7.5,3.358-7.5,7.5v8
		C248,199.642,251.357,203,255.5,203z"/>
</g>
</svg>