<?xml version="1.0" encoding="utf-8"?>
<!-- Generator: Adobe Illustrator 16.0.0, SVG Export Plug-In . SVG Version: 6.00 Build 0)  -->
<!DOCTYPE svg PUBLIC "-//W3C//DTD SVG 1.1//EN" "http://www.w3.org/Graphics/SVG/1.1/DTD/svg11.dtd">
<svg version="1.1" id="Layer_1" xmlns="http://www.w3.org/2000/svg" xmlns:xlink="http://www.w3.org/1999/xlink" x="0px" y="0px"
	 width="128px" height="128px" viewBox="0 0 128 128" enable-background="new 0 0 128 128" xml:space="preserve">
<g>
	<g>
		<g>
			
				<rect x="88.354" y="17.679" transform="matrix(0.9776 0.2106 -0.2106 0.9776 7.0862 -18.4928)" fill="#282D33" width="3.987" height="12.674"/>
		</g>
		<g>
			
				<rect x="63.6" y="23.37" transform="matrix(0.3047 0.9524 -0.9524 0.3047 72.7834 -48.9735)" fill="#282D33" width="12.669" height="3.987"/>
		</g>
		<g>
			
				<rect x="46.604" y="34.789" transform="matrix(0.7393 0.6734 -0.6734 0.7393 38.5691 -26.0499)" fill="#282D33" width="12.641" height="3.987"/>
		</g>
		<g>
			
				<rect x="106.043" y="87.127" transform="matrix(0.7391 0.6736 -0.6736 0.7391 89.3552 -52.4381)" fill="#282D33" width="12.643" height="3.988"/>
		</g>
		<g>
			
				<rect x="115.1" y="68.696" transform="matrix(0.9771 0.2127 -0.2127 0.9771 17.8163 -24.2091)" fill="#282D33" width="12.62" height="3.987"/>
		</g>
		<g>
			
				<rect x="118.075" y="43.872" transform="matrix(0.3064 0.9519 -0.9519 0.3064 131.0449 -79.486)" fill="#282D33" width="3.987" height="12.625"/>
		</g>
		<g>
			
				<rect x="106.706" y="26.777" transform="matrix(0.7423 0.6701 -0.6701 0.7423 50.1985 -64.3095)" fill="#282D33" width="3.986" height="12.65"/>
		</g>
	</g>
	<g>
		<path fill="#282D33" d="M94.486,89.054l-1.66-3.625c8.743-4.007,14.393-12.83,14.393-22.479c0-13.613-11.025-24.689-24.576-24.689
			c-7.85,0-15.042,3.637-19.736,9.977l-3.204-2.372c5.373-7.259,13.948-11.592,22.94-11.592c15.75,0,28.563,12.864,28.563,28.675
			C111.205,74.151,104.644,84.399,94.486,89.054z"/>
	</g>
	<g>
		<path fill="#282D33" d="M94.466,110.599H18.497C8.297,110.599,0,102.268,0,92.026c0-8.853,6.187-16.372,14.651-18.163
			c0.79-15.372,13.498-27.636,29.005-27.636c13.713,0,25.557,9.76,28.391,23.031c1.129-0.193,2.258-0.292,3.376-0.292
			c11.263,0,20.426,9.2,20.426,20.508c0,0.154-0.002,0.309-0.006,0.466c4.646,1.07,8.047,5.207,8.049,10.187
			c0,5.433-4.141,9.911-9.42,10.424L94.466,110.599z M91.252,106.438l1.667,0.145c0.181,0.016,0.36,0.03,0.542,0.03
			c3.554,0,6.445-2.909,6.445-6.485c-0.002-3.522-2.745-6.363-6.246-6.468l-2.174-0.064l0.254-2.159
			c0.082-0.705,0.122-1.347,0.122-1.962c0-9.109-7.374-16.521-16.438-16.521c-1.462,0-2.955,0.211-4.439,0.628L68.78,74.2
			l-0.31-2.269C66.78,59.55,56.112,50.214,43.657,50.214c-13.817,0-25.058,11.29-25.058,25.167l0.005,1.961l-1.767,0.202
			C9.511,78.382,3.987,84.608,3.987,92.026c0,8.042,6.509,14.586,14.51,14.586h72.709L91.252,106.438z"/>
	</g>
	<g>
		<path fill="#282D33" d="M27.898,76.656l-3.987-0.014c0.042-11.621,9.494-21.077,21.071-21.077v3.987
			C35.596,59.553,27.932,67.226,27.898,76.656z"/>
	</g>
</g>
</svg>
